<svg xmlns="http://www.w3.org/2000/svg" viewBox="0 0 441.85 460"><defs><linearGradient id="a" x1="360.64" x2="65.41" y1="396.19" y2="53.08" gradientUnits="userSpaceOnUse"><stop offset="0" stop-color="#ccc"/><stop offset="1" stop-color="#e5e5e5"/></linearGradient></defs><rect width="413.3" height="430.28" x="14.276" y="14.862" fill="url(#a)" stroke="#1a1a1a" stroke-width="6.548" rx="51.546" ry="36.625"/><path fill="#fff" d="M206.19 59.568c-2.762.79-7.285-1.719-7.406 2.625-4.689 7.761-15.33 7.742-22.344 12.406-8.944 4.477-17.781 9.565-25.72 15.625-2.907 9.404-12.79 13.744-18.874 20.874-22.271 19.77-46.191 41.867-52.658 72.281-2.411 9.719-3.728 19.71-4.155 29.751 4.707-2.45 10.2 1.71 9.656 6.882 3.286 17.673 2.028 36.496-6.52 52.552-8.304 18.525-15.196 38.358-13.48 58.94-1.145 4.651 4.214 1.04 6.47 3.188 6.456 3.236 4.395 12.063 6.117 17.83 1.167 12.605 3.971 27.512 16.413 33.89 21.625 13.41 48.156 12.138 72.594 15.155 60.075 3.922 121.32.452 179.22-16.542 15.515-5.087 30.508-11.542 44.935-19.176-8.701-6.213-20.515-10.202-25.469-20.219-.677-2.976 1.086-6.106 3.719-7.468-20.096-11.694-41.299-24.521-53.006-45.28-12.453-28.455-24.846-57.412-30.869-87.97-1.185-4.87-1.58-11.64 4.344-13.47 8.253-2.03 17.08.086 25.406.72 10.633 1.1 20.664 6.85 25.844 16.343 2.142 2.905 4.118 5.952 6.562 8.625 14.345-17.528 21.584-42.767 11.594-64.062-4.95-12.948-14.922-23.78-27.85-29.003-8.621-4.32-20.096-8.792-21.088-19.997-2.36-5.57-8.99-7.575-13.05-11.663-26.05-19.423-57.25-34.106-90.38-32.839z"/><path fill="#1a1a1a" d="M206.3 54.375c-11.52 0-22.065 1.334-14.735 4.585 2.924 1.298-5.148 5.434-9.325 6.801-7.805 2.555-18.351 8.17-26.585 13.602-7.42 4.894-23.286 13.426-12.932 11.85 0 1.063-8.877 9.67-19.681 19.114-29.225 25.548-43.402 44.51-49.924 66.875-7.756 26.591-8.448 74.146-.722 49.461 1.304-4.164 3.074-7.572 3.968-7.522.893.05 1.81 7.705 2.009 17.002.345 16.138.02 17.609-6.44 32.562-11.887 27.513-14.835 38.779-14.941 56.365-.053 8.764.513 16.537 1.288 17.26.774.723 2.934.41 4.791-.67s3.77-1.33 4.276-.567c.506.763 1.693 7.637 2.628 15.302 2.341 19.194 5.948 26.707 16.487 34.468 14.055 10.35 33.669 14.568 83.671 17.981 57.343 3.915 126.88-2.532 171.67-15.92 15.84-4.734 52.448-20.73 55.643-24.318 1.697-1.904-.74-4.091-13.499-11.953-18.867-11.624-19.645-14.789-2.782-11.592 9.269 1.758 6.718-1.499-7.059-8.913-24.272-13.063-42.752-27.302-52.19-40.238-1.986-2.72-6.887-13.624-10.924-24.267-4.036-10.642-8.796-22.513-10.562-26.379-1.765-3.866-4.567-12.623-6.234-19.424-1.666-6.8-3.892-15.492-4.946-19.372-1.053-3.88-1.398-7.558-.773-8.14 1.75-1.63 18.684-.585 28.543 1.752 7.893 1.87 9.652 3.15 16.487 12.262 4.619 6.157 9.854 13.808 11.798 13.808 2.273 0 8.047-7.898 13.19-17.57 13.347-25.1 10.92-43.293.516-63.937-7.883-15.382-16.326-19.573-34.056-28.44-4.198-3.377-10.146-4-10.613-10.46 0-5.664-6.044-11.187-27.72-25.4-27.41-17.957-52.12-25.972-80.35-25.972zm-.979 13.447c2.036-.026 4.365.114 7.368.31 6.86.446 18.743 2.747 26.43 5.151 7.908 2.473 15.782 3.99 18.085 3.452 2.55-.596 7.375.599 12.983 3.246 7.044 3.326 8.75 4.868 7.934 7.265-.781 2.292 1.17 4.596 7.934 9.222 4.942 3.38 8.714 6.959 8.347 7.986-1.283 3.59-6.554 2.88-14.065-1.906-13.29-8.47-50.27-11.734-53.12-9.532-4.059 3.139 28.222 5.617 37.715 10.098 6.258 2.955 8.803 5.049 8.398 7.007-.319 1.542-1.8 2.844-3.246 2.885-3.135.09-2.506 3.752 1.288 7.677 1.585 1.64 2.233 4.05 1.545 5.719-1.03 2.5-1.74 2.23-5.41-2.01-3.992-4.612-4.362-4.71-6.646-1.854-2.314 2.894-2.738 2.843-10.974-1.237-9.683-4.797-15.147-5.46-15.147-1.803 0 3.6-2.895 3.125-19.99-3.297-16.513-6.204-47.128-5.215-58.425-1.546-10.512 3.414 8.377 2.47 33.283 4.43 3.34.264 5.307 1.33 5.307 2.886 0 1.982-3.605 2.637-18.033 3.297-22.192 1.017-27.358 3.93-9.428 5.307 7.82.6 7.745 3.412-.155 4.895-3.305.62-9.193 1.929-13.086 2.885-10.343 2.511-21.69 3.506-31.222 9.428-12.265 6.538 12.201-1.185 17.878-1.391 5.678-.206 5.947-.45 14.22-.464 20.706-.032 20.44 3.058-.876 9.944-16.113 5.205-23.783 8.559-29.986 13.086-6.355 4.64-1.426 4.356 14.014-.721 15.426-5.073 45.837-9.683 51.161-7.78 3.943 1.41 8.64 4.276 4.586 4.276-1.828 0-18.057 3.638-19.27 4.998-3.806 4.273 25.672 2.438 41.836-2.473 10.928-3.32 15.52-5.787 22.257-11.953 6.106-5.589 8.227-8.677 7.573-11.026-1.486-5.34 7.095-12.417 15.096-12.417 10.74 0 10.6 3.677-.772 16.899-6.725 7.818-5.016 9.69 3.4 3.71 8.058-5.727 16.92-17.165 19.424-25.092 1.047-3.315 3.98-7.475 6.492-9.222 6.416-4.463 17.727-4.45 22.927 0 2.249 1.925 8.945 5.762 14.94 8.553 36.853 13.582 38.269 52.444 23.907 76.406-1.976 1.767-2.758 1.61-4.431-.98-7.879-12.191-23.494-21.447-50.697-30.036-12.614-3.983-17.928-4.792-32.768-4.792-17.167 0-18.038.236-30.501 6.44-10.306 5.13-14.11 6.21-19.063 5.462-7.208-1.09-8.243 1.515-2.525 6.337 3.563 3.004 3.826 2.949 12.83-1.649a903.567 903.567 0 0 1 14.477-7.213c3.389-1.638 11.897-2.783 23.958-3.246 16.326-.626 19.62-.315 25.812 2.628 3.906 1.856 27.9 8.734 29.161 10.15 2.727 3.06-18.029-.679-30.655.721-7.115.79-8.608.455-10.2-2.318-1.552-2.702-3.733-3.298-12.675-3.298-9.122 0-13.408 1.15-27.616 7.42-10.58 4.668-19.235 7.418-23.39 7.418-8.297 0-15.973-5.258-15.973-10.974 0-5.784-3.885-4.015-5.719 2.577-1.168 4.201-.717 6.528 2.164 10.87 6.428 9.69 21.12 11.632 43.536 5.77 7.017-1.833 17.045-3.503 22.257-3.709 8.295-.328 9.48.021 9.48 2.783 0 4.802-14.63 8.913-32.2 9.067-14.064.124-19.768 2.137-14.53 5.153 1.316.757 7.783 2.261 14.374 3.297 6.592 1.036 12.423 2.556 12.983 3.4.56.845-1.999 2.717-5.719 4.174-5.433 2.128-10.804 2.485-27.152 1.751-18.185-.815-19.959-.67-16.796 1.494 1.947 1.333 5.333 2.78 7.522 3.195 2.19.414 5.965 1.126 8.398 1.597 6.726 1.3 5.374 5.168-2.215 6.337-14.194 2.186-22.649 1.168-33.901-4.07-11.086-5.161-15.017-5.388-10.768-.618 1.597 1.792 1.744 3.134.464 4.327-2.21 2.058-10.671-1.66-19.887-8.707-7.27-5.559-8.728-5.71-17.363-1.597-10.38 4.945-23.18 16.416-28.904 25.864-2.892 4.774-6.352 9.486-7.677 10.51-5.69 4.399-4.093-2.911 6.028-27.358 5.888-14.223 10.377-26.126 9.995-26.482-.382-.356-3.696 2.73-7.367 6.904-7.393 8.405-13.601 9.609-14.632 2.834-.487-3.197 3.264-16.265 7.78-27.203 1.036-2.512.522-2.84-3.247-1.958-2.542.594-4.978.265-5.667-.773-1.666-2.51 3.69-16.799 9.016-24.112 3.144-4.316 4.1-7.325 3.35-10.51-.579-2.452-.318-6.311.617-8.604 2.726-6.678 24.67-28.945 34.16-34.674 7.696-4.646 8.553-5.75 7.625-9.686-1.158-4.91 2.035-7.764 16.384-14.529 5.096-2.403 7.522-4.603 7.522-6.852 0-2.546 3.827-5.063 16.384-10.82 11.822-5.42 15.378-6.929 21.484-7.007zm12.056 59.61c3.183-.027 6.609.966 9.583 3.349 6.19 4.96 6.763 13.309.67 18.445-6.093 5.135-22.98 2.846-22.98-9.48 0-4.472.738-5.713 4.638-9.377 1.95-1.832 4.906-2.91 8.089-2.937zm-16.744.051c.109.008.174.066.258.155.4 2.95-.75 5.587-.825 6.955-1.918 11.96-1.37 14.053 8.656 25.452-4.138 0-14.988-10.882-14.374-18.754.408-5.243 4.655-13.916 6.286-13.808zm-18.96 4.792c1.87.07 3.506 1.56 2.525 3.04-.56.844-1.718 1.494-2.576 1.494-2.479 0-3.783-2.93-1.804-4.07a3.451 3.451 0 0 1 1.855-.464zm36.22.67a6.595 6.595 0 1 0 0 13.19 6.595 6.595 0 0 0 0-13.19zm92.017.567c-1.441 0-2.628 1.114-2.628 2.421 0 3.318.912 4.896-2.627 8.862s-4.529 4.528-8.14 6.698c-5.04 3.978-7.779 5.279-3.4 4.173 8.059-2.036 17.57-7.273 19.577-10.768 2.465-4.291.73-11.386-2.782-11.386zm-92.842 1.082c1.028-.12 2.036.163 2.937.67-.488-.155-.976-.3-1.494-.31-.697-.013-1.374.137-2.061.412s-1.309.643-1.803 1.134a5.304 5.304 0 0 0-1.134 1.7c.313-1.45 1.042-2.754 2.525-3.349a3.983 3.983 0 0 1 1.03-.257zm58.013 92.069c5.897-.483 2.114 4.654-12.21 17.723-24.854 22.673-41.423 43.084-63.99 78.725-10.488 16.562-16.466 29.53-22.516 48.997-5.62 18.08-8.804 17.732-10.253-1.134-.688-8.954.161-14.498 4.534-29.058 2.97-9.89 7.703-21.989 8.398-23.803 1.13-2.952 6.232-16.331 3.761-14.117-5.076 4.548-21.329 39.549-26.894 57.034-3.67 11.528-6.35 17.311-8.037 17.311-4.34 0-4.256-25.016.154-44.205 2.056-8.944 14.191-28.653 13.756-29.058-1.462-1.362-22.616 24.302-26.894 33.18-2.331 4.839-4.828 12.839-5.513 17.826-.684 4.987-1.975 10.392-2.885 12.005-3.564 6.314-5.139.533-4.534-16.848.584-16.758.99-18.306 6.338-26.07 5.447-7.909 16.264-18.186 31.274-29.676 6.588-5.043 10.447-6.97-.052-2.782-18.828 6.856-36.948 20.915-53.325 41.423-10.34 12.948-12.254 14.605-13.91 12.108-.608-.915 2.293-7.723 6.44-15.147 7.496-13.424 12.794-18.87 48.378-49.718 8.7-7.543 8.79-7.645 2.988-5.822-10.199 3.204-37.53 21.007-48.12 31.377-5.591 5.473-10.624 9.213-11.233 8.295-1.486-2.24 9.53-25.995 17.363-37.405 7.153-10.417 21.55-23.846 30.295-28.234 5.607-2.813 6.504-2.85 17.93-.206 28.91 6.689 48.825 7.419 53.736 1.906 1.142-1.281 3.362-2.382 4.947-2.421s6.063-1.135 9.943-2.422c8.903-2.953 11.987-.762 6.543 4.637-2.128 2.11-9.789 10.299-9.789 10.974 1.288 2.395 34.86-21.766 39.465-28.594.919-2.25 4.127-4.372 8.295-5.564 2.377-.68 4.255-1.126 5.616-1.237zm1.958 17.672c.312.022.633.1.927.206 2.385.852 2.94 2.275 2.164 5.667-6.03 26.336-5.786 50.137.773 67.905 2.163 5.86 8.98 19.928 15.147 31.274 6.167 11.345 11.232 21.245 11.232 21.948 0 3.808-6.784-.072-18.754-10.665-10.846-9.599-15.017-14.801-21.484-26.791-11.571-21.453-14.632-30.746-14.632-44.721 0-15.376 4.792-27.634 14.838-37.971 4.9-5.043 7.606-7.012 9.79-6.852zm9.944 11.592c.578-.029 1.213.529 1.957 1.648.764 1.149 7.218 15.415 14.323 31.737 9.876 22.685 14.14 35.117 18.084 52.706 2.838 12.656 4.754 23.6 4.277 24.318-2.344 3.533-5.767.4-16.332-14.94-14.542-21.117-24.944-54.673-24.988-80.529-.017-9.693.944-14.856 2.679-14.94zm-40.444 18.342c.911.02 1.29.86.875 2.627-.309 1.317-1.004 9.85-1.545 18.96-.89 15-.492 17.785 3.812 29.728 2.615 7.254 9.469 21.61 15.25 31.892 5.782 10.283 10.08 19.371 9.532 20.196-2.05 3.09-5.727 1.226-18.136-9.325-10.628-9.037-14.095-13.433-21.021-26.431-12.861-24.136-12.467-39.1 1.649-59.198 3.372-4.801 7.148-8.005 9.17-8.398.152-.03.282-.055.413-.052zm-33.644 56.055a.715.715 0 0 1 .412.103c.838.482 2.47 4.345 3.606 8.552 3.04 11.247 9.33 21.917 22.31 37.765 6.353 7.758 11.088 14.841 10.51 15.714-1.581 2.383-2.958 2.049-14.942-3.71-12.649-6.077-28.752-21.267-31.84-29.985-1.457-4.113-1.531-7.492-.206-12.005 2.166-7.376 7.788-16.315 10.15-16.435zm-22.824 33.18c3.764 1.727 6.085 20.338 27.049 30.449 3.014 1.454-12.591.902-18.496-1.907-5.906-2.809-11.362-16.52-8.553-28.543z"/></svg>